<svg xmlns="http://www.w3.org/2000/svg" viewBox="0 0 800 1000" width="800" height="1000" role="img">
  <defs>
    <linearGradient id="bg1" x1="0" y1="0" x2="0.3" y2="1">
      <stop offset="0%" stop-color="#20191B"/><stop offset="100%" stop-color="#3A2A2C"/>
    </linearGradient>
    <radialGradient id="glow1" cx="50%" cy="42%" r="52%">
      <stop offset="0%" stop-color="#C98B62" stop-opacity=".85"/>
      <stop offset="60%" stop-color="#C98B62" stop-opacity=".18"/>
      <stop offset="100%" stop-color="#C98B62" stop-opacity="0"/>
    </radialGradient>
    <linearGradient id="wax1" x1="0" y1="0" x2="1" y2="0">
      <stop offset="0%" stop-color="#000" stop-opacity=".16"/>
      <stop offset="22%" stop-color="#fff" stop-opacity=".30"/>
      <stop offset="55%" stop-color="#fff" stop-opacity=".05"/>
      <stop offset="100%" stop-color="#000" stop-opacity=".20"/>
    </linearGradient>
    <radialGradient id="flame1" cx="50%" cy="70%" r="60%">
      <stop offset="0%" stop-color="#FFF6DA"/><stop offset="45%" stop-color="#FFD98A"/>
      <stop offset="100%" stop-color="#E9A94B" stop-opacity="0"/>
    </radialGradient>
    <filter id="soft1" x="-30%" y="-30%" width="160%" height="160%">
      <feGaussianBlur stdDeviation="18"/>
    </filter>
    <filter id="grain1" x="0" y="0" width="100%" height="100%">
      <feTurbulence type="fractalNoise" baseFrequency="0.9" numOctaves="3" seed="1"/>
      <feColorMatrix type="saturate" values="0"/>
    </filter>
  </defs>
  <rect width="800" height="1000" fill="url(#bg1)"/>
  <rect width="800" height="1000" fill="url(#glow1)"/>
  <ellipse cx="400" cy="764" rx="210" ry="32" fill="#3A2E24" opacity=".18" filter="url(#soft1)"/>
  <ellipse cx="400" cy="740" rx="150" ry="34" fill="#B4885E" opacity=".55"/>
  <path d="M 330 740 C 210 600, 460 530, 360 410 C 290 320, 470 310, 418 270 C 530 400, 540 580, 470 740 Z" fill="#E9D9CF"/>
  <path d="M 330 740 C 210 600, 460 530, 360 410 C 290 320, 470 310, 418 270 C 530 400, 540 580, 470 740 Z" fill="url(#wax1)"/>
  <path d="M 370 680 C 310 540, 440 460, 386 340" stroke="#fff" stroke-opacity=".22" stroke-width="16" fill="none" stroke-linecap="round"/>
  <path d="M 416 264 q 4 -10 0 -22" stroke="#4A3B2E" stroke-width="3.2" fill="none" stroke-linecap="round" opacity=".75"/>
  <ellipse cx="416" cy="220" rx="55" ry="98" fill="url(#flame1)" opacity=".55"/>
  <path d="M 416 190.9 C 437.0 220.2, 431.8 256.0, 416 256.0 C 400.2 256.0, 395.0 220.2, 416 190.9 Z" fill="#FFE0A0" opacity=".95"/>
  <path d="M 416 215.6 C 424.4 236.5, 422.3 252.7, 416 252.7 C 409.7 252.7, 407.6 236.5, 416 215.6 Z" fill="#FFFBEF" opacity=".9"/>
  <rect width="800" height="1000" filter="url(#grain1)" opacity=".05" style="mix-blend-mode:multiply"/>
  <rect x="0" y="0" width="800" height="1000" fill="none"/>
</svg>
